<?xml version="1.0" encoding="UTF-8" standalone="no"?>
<svg
   height="24px"
   viewBox="0 -960 960 960"
   width="24px"
   fill="#000"
   version="1.1"
   id="svg1"
   xmlns="http://www.w3.org/2000/svg"
   xmlns:svg="http://www.w3.org/2000/svg">
  <style>
    path { fill: #000; }
    @media (prefers-color-scheme: dark) { path { fill: #fff; } }
  </style>
  <defs
     id="defs1" />
  <path
     id="path5"
     style="fill:#000;stroke-width:3423.91;stroke-linecap:round;stroke-linejoin:round"
     d="M 120 -848.4375 C 98 -848.4375 79.182292 -840.58854 63.515625 -824.92188 C 47.848958 -809.25521 40 -790.4375 40 -768.4375 L 40 -628.4375 L 40 -488.4375 C 40 -466.4375 47.848958 -447.54167 63.515625 -431.875 C 79.182292 -416.20833 98 -408.4375 120 -408.4375 C 142 -408.4375 160.81771 -416.20833 176.48438 -431.875 C 192.15104 -447.54167 200 -466.4375 200 -488.4375 L 200 -768.4375 C 200 -790.4375 192.15104 -809.25521 176.48438 -824.92188 C 160.8177 -840.58854 142 -848.4375 120 -848.4375 z M 559.53125 -844.92188 C 551.19792 -845.25521 543 -844.07292 535 -841.40625 L 338.98438 -786.40625 C 321.65105 -781.07292 307.48437 -771.42188 296.48438 -757.42188 C 285.48438 -743.42188 280 -727.375 280 -709.375 L 280 -589.375 L 280 -472.42188 C 280 -454.42188 286.18229 -439.20833 298.51562 -426.875 C 310.84895 -414.54167 325.98438 -408.4375 343.98438 -408.4375 L 345 -408.4375 C 350.33333 -408.4375 355.19792 -408.92188 359.53125 -409.92188 C 363.86458 -410.92188 368.30208 -412.10417 372.96875 -413.4375 L 641.01562 -513.4375 C 652.34895 -518.10417 661.65105 -525.60417 668.98438 -535.9375 C 676.31771 -546.27083 680 -557.72396 680 -570.39062 C 680 -581.05729 676.3177 -590.08854 668.98438 -597.42188 C 661.65104 -604.75521 652.69792 -608.4375 642.03125 -608.4375 L 520 -608.4375 L 467.96875 -588.4375 C 462.63542 -586.4375 457.63542 -586.4375 452.96875 -588.4375 C 448.30208 -590.4375 444.96875 -594.04167 442.96875 -599.375 C 440.96875 -604.70833 441.1823 -609.92188 443.51562 -614.92188 C 445.84896 -619.92188 449.66667 -623.39062 455 -625.39062 L 520 -648.4375 L 800 -648.4375 C 821.33333 -648.4375 840.01562 -656.07292 856.01562 -671.40625 C 872.01562 -686.73958 880 -705.77083 880 -728.4375 L 583.98438 -839.375 C 575.98438 -842.70833 567.86458 -844.58855 559.53125 -844.92188 z M 660 -328.4375 C 538.49734 -328.4375 439.99998 -304.7672 440 -275.625 L 440 -270.3125 C 430.72654 -268.20727 422.52238 -263.45988 415.3125 -256.25 C 405.12917 -246.06667 400 -233.83125 400 -219.53125 L 400 -163.59375 C 400 -149.29375 405.12917 -137.05834 415.3125 -126.875 C 425.49584 -116.69167 437.73125 -111.5625 452.03125 -111.5625 L 867.96875 -111.5625 C 882.26875 -111.5625 894.5041 -116.69167 904.6875 -126.875 C 914.8708 -137.05834 920 -149.29375 920 -163.59375 L 920 -219.53125 C 920 -233.83125 914.8708 -246.06667 904.6875 -256.25 C 897.47758 -263.45987 889.27343 -268.20726 880 -270.3125 L 880 -275.625 C 880.00002 -304.7672 781.50266 -328.4375 660 -328.4375 z " />
</svg>
